<?xml version="1.0" encoding="utf-8" ?>
<svg xmlns="http://www.w3.org/2000/svg" xmlns:xlink="http://www.w3.org/1999/xlink" width="230" height="230">
	<path transform="matrix(0.359375 0 0 0.359375 0 -0.00012207)" d="M253.616 341.673C239.795 326.575 230.215 311.727 224.353 291.99C219.497 275.64 225.404 283.936 215.324 268.995C203.602 251.621 203.552 227.532 200.588 207.57C194.397 165.874 186.688 147.716 217.835 110.608C238.98 85.4171 254.56 72.0394 287.206 69.1908C315.857 65.7492 354.08 75.0638 375.016 95.501C380.906 101.25 381.419 102.001 389.171 104.86C423.408 117.487 432.188 166.155 426.546 197.912C423.886 212.879 426.686 211.424 426.796 223.829C427.028 250.04 423.955 260 406.665 277.582C404.297 302.893 391.469 322.162 375.486 340.644C392.099 357.861 405.594 361.538 427.84 368.501C484.163 386.129 523.698 398.678 538.568 460.835C545.189 488.513 541.502 486.102 516.684 496.072C464.044 517.217 406.315 530.66 349.61 533.797C272.733 538.29 196.984 524.689 125.613 496.433C118.09 493.455 104.262 489.69 99.8004 482.357C98.8671 470.407 103.112 452.554 107.326 441.222C122.645 400.02 164.336 384.38 203.212 372.155C232.537 362.933 234.945 366.326 253.616 341.673ZM291.169 84.8241C263.068 86.294 252.329 94.5759 233.152 115.901C198.904 153.983 212.243 173.351 217.749 216.713C221.246 199.387 217.165 178.694 226.122 164.782C244.123 136.82 284.075 156.601 309.784 155.868C320.324 155.568 329.159 152.866 338.486 148.099C366.96 133.877 386.98 125.442 403.76 159.016C414.175 179.856 403.837 195.377 407.779 213.527C411.048 202.018 413.611 188.257 413.522 176.314C413.397 159.464 402.939 124.567 383.917 119.336C364.437 113.979 375.26 116.016 361.488 103.925C342.423 87.1869 315.556 83.8206 291.169 84.8241ZM371.411 150.706C364.944 151.671 359.444 155.263 353.692 158.158C332.947 168.601 316.329 173.448 293.278 170.164C279.486 168.199 255.235 160.5 243.257 169.041C230.748 177.96 236.621 199.372 234.349 212.466C231.437 229.244 221.507 232.053 225.528 254.564C226.853 261.978 232.719 262.216 235.205 268.544C237.321 273.93 237.156 280.453 238.665 286.123C243.959 306.026 255.491 323.176 270.762 336.81C319.876 376.389 377.059 339.187 389.662 284.203C392.947 269.873 391.584 267.763 404.477 258.581C405.419 230.176 388.59 223.675 392.108 193.812C393.796 179.479 391.413 149.736 371.411 150.706ZM364.059 350.906C344.747 364.923 326.678 372.116 302.435 368.307C286.127 365.745 280.207 360.404 267.256 352.93C265.962 364.29 268.296 369.209 275.821 376.984C301.038 402.389 331.15 404.949 357.373 378.899C363.526 372.786 373.174 358.576 364.059 350.906ZM251.478 367.812C244.299 373.391 236.724 376.868 228.547 380.68C228.1 415.574 244.878 436.489 267.211 459.885C270.554 463.373 274.346 466.69 277.406 470.406C277.786 466.224 280.386 455.973 280.008 452.749C279.272 446.478 269.052 430.801 265.824 423.945C258.121 407.58 253.324 391.462 252.083 373.466C251.992 372.133 252.138 368.684 251.478 367.812ZM385.355 367.961C385.073 390.222 376.251 410.523 366.421 430.096C358.797 445.274 353.157 453.237 360.367 470.568C364.514 467.059 368.545 463.443 372.555 459.778C394.786 438.098 410.928 413.48 411.313 381.272L411.323 379.692C402.494 376.399 393.421 372.915 385.355 367.961ZM426.702 384.085C424.509 429.741 402.037 454.285 370.296 482.101C358.615 492.337 354.333 497.152 347.338 479.572C335.81 450.606 342.108 445.875 354.246 419.584C358.259 410.892 362.154 401.914 365.31 392.874C353.965 402.226 341.432 408.498 327.085 411.737C326.942 413.608 326.843 415.445 326.858 417.322C335.227 418.222 345.49 423.978 336.182 431.367C333.178 433.751 326.739 433.255 323.002 434.079C287.65 441.873 297.528 481.028 284.589 490.611C276.272 496.77 270.766 485.347 265.875 480.321C237.042 450.691 215.31 429.814 213.12 385.267C192.303 391.861 167.475 400.17 149.037 411.915C126.737 426.603 117.961 450.214 115.254 475.611C247.828 534.778 393.246 532.556 525.518 475.865C523.129 453.868 514.025 429.683 496.571 415.577C480.98 402.977 446.17 389.486 426.702 384.085ZM270.892 392.468C273.296 409.209 284.256 424.006 290.722 439.318C293.929 435.357 297.364 431.761 301.031 428.226C306.07 423.478 309.81 419.776 312.478 413.286C296.438 410.808 282.536 404.111 270.892 392.468Z"/>
	<path transform="matrix(0.359375 0 0 0.359375 0 -0.00012207)" d="M289.212 321.688C282.386 317.613 277.693 308.453 286.725 304.669C295.609 300.947 306.038 324.114 328.707 306.997C330.425 305.7 332.084 304.378 334.07 303.507C339.893 303.296 346.409 307.956 342.986 314.435C334.298 330.88 304.191 330.081 289.212 321.688Z"/>
</svg>
